#!OML:ASF H:\MichaelJackson\Top Level 1\Subject 1\Session 1\male.ASF
:FULLY-SPECIFIED
:DEGREES
442
root 6.08872 15.048 10.1374 -350.923 4.7879 -7.01258
lowerback 8.81062 0.28436 0.193299
upperback 1.7138 0.493912 2.67516
thorax -3.18507 0.253608 2.60743
lowerneck -5.68303 -7.60816 1.59222
upperneck 2.48899 -10.4687 4.7371
head 1.92772 -5.09019 0.859242
rclavicle -7.00716e-015 -2.16675e-014
rhumerus -5.88478 -28.5217 -35.3416
rradius 91.5622
rwrist -54.3601
rhand -44.2199 -33.58
rfingers 7.12502
rthumb -17.0328 -62.8532
lclavicle -7.00716e-015 -2.16675e-014
lhumerus -47.0679 -34.5633 119.473
lradius 62.5996
lwrist 12.4599
lhand 17.0082 31.0324
lfingers 7.12502
lthumb 41.7384 55.7094
rfemur -15.8191 -20.5663 2.15493
rtibia 45.9951
rfoot -17.8594 -12.9996
rtoes -38.8173
lfemur -46.0211 20.4433 -2.01601
ltibia 65.2976
lfoot -33.3231 -16.2342
ltoes -13.3879
443
root 6.03212 15.0812 10.1099 -350.567 4.25666 -6.81372
lowerback 8.97151 0.327036 0.061795
upperback 1.66227 0.539677 2.61878
thorax -3.3306 0.278288 2.61792
lowerneck -5.84591 -7.37823 1.62901
upperneck 2.39996 -10.1575 4.56553
head 1.90945 -4.93918 0.807114
rclavicle 8.94531e-016 4.96962e-015
rhumerus -5.57925 -30.3206 -37.3747
rradius 91.6375
rwrist -49.4335
rhand -52.7097 -43.1559
rfingers 7.12502
rthumb -25.1876 -71.5139
lclavicle 8.94531e-016 4.96962e-015
lhumerus -47.4801 -35.0309 119.662
lradius 62.8945
lwrist 13.285
lhand 16.3967 31.7904
lfingers 7.12502
lthumb 41.1647 56.6543
rfemur -17.4533 -21.5166 2.51747
rtibia 47.6166
rfoot -17.8265 -12.5647
rtoes -37.2417
lfemur -45.7419 20.0348 -1.93169
ltibia 64.4642
lfoot -33.0692 -14.9207
ltoes -14.8473
444
root 5.96895 15.1155 10.0851 -350.251 3.71746 -6.60728
lowerback 9.14266 0.370582 -0.119714
upperback 1.62838 0.580396 2.55218
thorax -3.46381 0.300951 2.64634
lowerneck -5.98465 -7.14858 1.69309
upperneck 2.27858 -9.8478 4.41636
head 1.877 -4.78932 0.759201
rclavicle -6.95746e-016 5.96354e-016
rhumerus -5.91685 -30.9807 -38.9544
rradius 91.8503
rwrist -43.2287
rhand -57.2009 -57.746
rfingers 7.12502
rthumb -29.4833 -85.4256
lclavicle -6.95746e-016 5.96354e-016
lhumerus -47.9352 -35.4994 119.779
lradius 63.3423
lwrist 14.3182
lhand 15.7401 32.3584
lfingers 7.12502
lthumb 40.5479 57.4168
rfemur -19.0699 -22.4812 2.98182
rtibia 49.3393
rfoot -17.8511 -12.2077
rtoes -35.2529
lfemur -45.3612 19.6435 -1.80078
ltibia 63.5745
lfoot -32.7846 -13.6688
ltoes -16.2006
445
root 5.8992 15.1501 10.0631 -349.981 3.20528 -6.40006
lowerback 9.32323 0.409522 -0.330851
upperback 1.61417 0.610276 2.47169
thorax -3.58161 0.318489 2.67811
lowerneck -6.09474 -6.92825 1.78194
upperneck 2.11658 -9.55215 4.31494
head 1.82866 -4.64654 0.72346
rclavicle 3.67752e-015 1.66979e-014
rhumerus -6.95764 -30.5406 -40.0257
rradius 92.2265
rwrist -36.4407
rhand -58.0067 -70.9076
rfingers 7.12502
rthumb -30.2522 -261.551
lclavicle 3.67752e-015 1.66979e-014
lhumerus -48.3973 -35.9471 119.797
lradius 63.9187
lwrist 15.5582
lhand 15.0936 32.8343
lfingers 7.12502
lthumb 39.9397 58.0785
rfemur -20.6237 -23.4734 3.54753
rtibia 51.1337
rfoot -17.9822 -11.8413
rtoes -33.0034
lfemur -44.8967 19.2352 -1.61729
ltibia 62.6436
lfoot -32.469 -12.4526
ltoes -17.4831
446
root 5.82347 15.1841 10.0443 -349.76 2.74274 -6.1939
lowerback 9.50184 0.440175 -0.552415
upperback 1.62334 0.625929 2.37519
thorax -3.67331 0.328845 2.70065
lowerneck -6.17137 -6.72304 1.89324
upperneck 1.90649 -9.27782 4.26834
head 1.76167 -4.51463 0.702351
rclavicle 3.77691e-015 1.07344e-014
rhumerus -8.61555 -29.0743 -40.6938
rradius 92.8758
rwrist -29.8404
rhand -56.8951 -76.5249
rfingers 7.12502
rthumb -29.1913 -255.744
lclavicle 3.77691e-015 1.07344e-014
lhumerus -48.8235 -36.3571 119.699
lradius 64.5861
lwrist 17.0034
lhand 14.4464 33.3091
lfingers 7.12502
lthumb 39.3303 58.7337
rfemur -22.0699 -24.4765 4.20094
rtibia 52.9559
rfoot -18.2421 -11.4011
rtoes -30.8131
lfemur -44.3661 18.7717 -1.38299
ltibia 61.6911
lfoot -32.1135 -11.2283
ltoes -18.7281
447
root 5.7424 15.218 10.029 -349.584 2.35247 -5.99831
lowerback 9.6656 0.452134 -0.756796
upperback 1.65623 0.616548 2.26637
thorax -3.73044 0.326175 2.70368
lowerneck -6.21327 -6.53103 2.01076
upperneck 1.65209 -9.02081 4.2764
head 1.67767 -4.39173 0.698369
rclavicle -3.08116e-015 5.1684e-015
rhumerus -10.7093 -26.7158 -41.1728
rradius 93.8722
rwrist -23.6388
rhand -54.9054 -74.1667
rfingers 7.12502
rthumb -27.2897 -257.788
lclavicle -3.08116e-015 5.1684e-015
lhumerus -49.1808 -36.6908 119.46
lradius 65.3275
lwrist 18.5888
lhand 13.8306 33.8704
lfingers 7.12502
lthumb 38.7498 59.4616
rfemur -23.3664 -25.4441 4.93776
rtibia 54.7429
rfoot -18.5994 -10.8681
rtoes -29.0198
lfemur -43.7917 18.2005 -1.09023
ltibia 60.7332
lfoot -31.7003 -9.93392
ltoes -19.9813
448
root 5.65663 15.2518 10.0174 -349.445 2.03713 -5.8155
lowerback 9.80239 0.440835 -0.921678
upperback 1.70372 0.578668 2.14047
thorax -3.7552 0.308454 2.67024
lowerneck -6.21433 -6.34774 2.13843
upperneck 1.37112 -8.77476 4.31814
head 1.57988 -4.27491 0.704348
rclavicle 3.37934e-015 -3.97569e-015
rhumerus -13.055 -23.6432 -41.7125
rradius 95.2375
rwrist -17.8468
rhand -52.4263 -66.3072
rfingers 7.12502
rthumb -24.9161 -265.297
lclavicle 3.37934e-015 -3.97569e-015
lhumerus -49.4635 -36.9176 119.072
lradius 66.1224
lwrist 20.3165
lhand 13.1636 34.5503
lfingers 7.12502
lthumb 38.1203 60.3167
rfemur -24.4864 -26.3169 5.74348
rtibia 56.4189
rfoot -19.018 -10.2893
rtoes -27.9554
lfemur -43.1945 17.4859 -0.742804
ltibia 59.788
lfoot -31.208 -8.50646
ltoes -21.2781
449
root 5.5666 15.2862 10.0097 -349.328 1.78997 -5.6499
lowerback 9.88919 0.399763 -1.03739
upperback 1.76229 0.505372 2.00187
thorax -3.73813 0.272063 2.60043
lowerneck -6.1819 -6.16322 2.26994
upperneck 1.09189 -8.52601 4.3638
head 1.47739 -4.15728 0.711675
rclavicle 4.67144e-015 -6.36111e-015
rhumerus -15.435 -20.0978 -42.5564
rradius 97.0387
rwrist -13.4128
rhand -49.9117 -54.8879
rfingers 7.12502
rthumb -22.5044 -443.597
lclavicle 4.67144e-015 -6.36111e-015
lhumerus -49.6564 -36.9975 118.521
lradius 66.9641
lwrist 22.203
lhand 12.3925 35.3755
lfingers 7.12502
lthumb 37.3918 61.3377
rfemur -25.4073 -27.0259 6.60759
rtibia 57.8948
rfoot -19.4577 -9.79355
rtoes -27.6987
lfemur -42.5935 16.6026 -0.341506
ltibia 58.8706
lfoot -30.6022 -6.93013
ltoes -22.5579
450
root 5.47233 15.3215 10.006 -349.229 1.59314 -5.50815
lowerback 9.91796 0.332055 -1.09851
upperback 1.81616 0.402019 1.84932
thorax -3.69175 0.219862 2.48917
lowerneck -6.09188 -5.97309 2.4198
upperneck 0.844923 -8.26896 4.38097
head 1.37353 -4.03611 0.70836
rclavicle -1.04362e-014 -6.75868e-015
rhumerus -17.7501 -16.4126 -43.8261
rradius 99.0125
rwrist -9.58578
rhand -46.172 -43.4353
rfingers 7.12502
rthumb -18.9111 -432.536
lclavicle -1.04362e-014 -6.75868e-015
lhumerus -49.7911 -36.9059 117.816
lradius 67.8487
lwrist 24.303
lhand 11.4542 36.2842
lfingers 7.12502
lthumb 36.5043 62.4753
rfemur -26.1071 -27.5108 7.52207
rtibia 59.0787
rfoot -19.8773 -9.57846
rtoes -28.1329
lfemur -41.9972 15.5405 0.115874
ltibia 57.9983
lfoot -29.8558 -5.19656
ltoes -23.7739
